<mxfile host="app.diagrams.net" modified="2021-11-19T19:11:42.924Z" agent="5.0 (Windows NT 10.0; Win64; x64) AppleWebKit/537.36 (KHTML, like Gecko) Chrome/95.0.4638.69 Safari/537.36 Edg/95.0.1020.53" etag="1OuINFlwBi2HlBUk1uQ7" version="15.8.3" type="github">
  <diagram id="oKufPPPXmGWOLm9Iytmd" name="Page-1">
    <mxGraphModel dx="431" dy="757" grid="1" gridSize="10" guides="1" tooltips="1" connect="1" arrows="1" fold="1" page="1" pageScale="1" pageWidth="850" pageHeight="1100" math="0" shadow="0">
      <root>
        <mxCell id="0" />
        <mxCell id="1" parent="0" />
        <mxCell id="tX9dMiAC_j6GEqoPcF5A-1" value="sebastian.departments" style="shape=table;startSize=30;container=1;collapsible=1;childLayout=tableLayout;fixedRows=1;rowLines=0;fontStyle=1;align=center;resizeLast=1;rounded=0;" vertex="1" parent="1">
          <mxGeometry x="300" width="200" height="140" as="geometry" />
        </mxCell>
        <mxCell id="tX9dMiAC_j6GEqoPcF5A-2" value="" style="shape=partialRectangle;collapsible=0;dropTarget=0;pointerEvents=0;fillColor=none;top=0;left=0;bottom=1;right=0;points=[[0,0.5],[1,0.5]];portConstraint=eastwest;" vertex="1" parent="tX9dMiAC_j6GEqoPcF5A-1">
          <mxGeometry y="30" width="200" height="30" as="geometry" />
        </mxCell>
        <mxCell id="tX9dMiAC_j6GEqoPcF5A-3" value="PK" style="shape=partialRectangle;connectable=0;fillColor=none;top=0;left=0;bottom=0;right=0;fontStyle=1;overflow=hidden;" vertex="1" parent="tX9dMiAC_j6GEqoPcF5A-2">
          <mxGeometry width="30" height="30" as="geometry">
            <mxRectangle width="30" height="30" as="alternateBounds" />
          </mxGeometry>
        </mxCell>
        <mxCell id="tX9dMiAC_j6GEqoPcF5A-4" value="department_id" style="shape=partialRectangle;connectable=0;fillColor=none;top=0;left=0;bottom=0;right=0;align=left;spacingLeft=6;fontStyle=5;overflow=hidden;" vertex="1" parent="tX9dMiAC_j6GEqoPcF5A-2">
          <mxGeometry x="30" width="170" height="30" as="geometry">
            <mxRectangle width="170" height="30" as="alternateBounds" />
          </mxGeometry>
        </mxCell>
        <mxCell id="tX9dMiAC_j6GEqoPcF5A-5" value="" style="shape=partialRectangle;collapsible=0;dropTarget=0;pointerEvents=0;fillColor=none;top=0;left=0;bottom=0;right=0;points=[[0,0.5],[1,0.5]];portConstraint=eastwest;" vertex="1" parent="tX9dMiAC_j6GEqoPcF5A-1">
          <mxGeometry y="60" width="200" height="30" as="geometry" />
        </mxCell>
        <mxCell id="tX9dMiAC_j6GEqoPcF5A-6" value="" style="shape=partialRectangle;connectable=0;fillColor=none;top=0;left=0;bottom=0;right=0;editable=1;overflow=hidden;" vertex="1" parent="tX9dMiAC_j6GEqoPcF5A-5">
          <mxGeometry width="30" height="30" as="geometry">
            <mxRectangle width="30" height="30" as="alternateBounds" />
          </mxGeometry>
        </mxCell>
        <mxCell id="tX9dMiAC_j6GEqoPcF5A-7" value="department_name" style="shape=partialRectangle;connectable=0;fillColor=none;top=0;left=0;bottom=0;right=0;align=left;spacingLeft=6;overflow=hidden;" vertex="1" parent="tX9dMiAC_j6GEqoPcF5A-5">
          <mxGeometry x="30" width="170" height="30" as="geometry">
            <mxRectangle width="170" height="30" as="alternateBounds" />
          </mxGeometry>
        </mxCell>
        <mxCell id="tX9dMiAC_j6GEqoPcF5A-8" value="" style="shape=partialRectangle;collapsible=0;dropTarget=0;pointerEvents=0;fillColor=none;top=0;left=0;bottom=0;right=0;points=[[0,0.5],[1,0.5]];portConstraint=eastwest;" vertex="1" parent="tX9dMiAC_j6GEqoPcF5A-1">
          <mxGeometry y="90" width="200" height="20" as="geometry" />
        </mxCell>
        <mxCell id="tX9dMiAC_j6GEqoPcF5A-9" value="FK" style="shape=partialRectangle;connectable=0;fillColor=none;top=0;left=0;bottom=0;right=0;editable=1;overflow=hidden;" vertex="1" parent="tX9dMiAC_j6GEqoPcF5A-8">
          <mxGeometry width="30" height="20" as="geometry">
            <mxRectangle width="30" height="20" as="alternateBounds" />
          </mxGeometry>
        </mxCell>
        <mxCell id="tX9dMiAC_j6GEqoPcF5A-10" value="manager_id" style="shape=partialRectangle;connectable=0;fillColor=none;top=0;left=0;bottom=0;right=0;align=left;spacingLeft=6;overflow=hidden;" vertex="1" parent="tX9dMiAC_j6GEqoPcF5A-8">
          <mxGeometry x="30" width="170" height="20" as="geometry">
            <mxRectangle width="170" height="20" as="alternateBounds" />
          </mxGeometry>
        </mxCell>
        <mxCell id="tX9dMiAC_j6GEqoPcF5A-11" value="" style="shape=partialRectangle;collapsible=0;dropTarget=0;pointerEvents=0;fillColor=none;top=0;left=0;bottom=0;right=0;points=[[0,0.5],[1,0.5]];portConstraint=eastwest;" vertex="1" parent="tX9dMiAC_j6GEqoPcF5A-1">
          <mxGeometry y="110" width="200" height="30" as="geometry" />
        </mxCell>
        <mxCell id="tX9dMiAC_j6GEqoPcF5A-12" value="FK" style="shape=partialRectangle;connectable=0;fillColor=none;top=0;left=0;bottom=0;right=0;editable=1;overflow=hidden;" vertex="1" parent="tX9dMiAC_j6GEqoPcF5A-11">
          <mxGeometry width="30" height="30" as="geometry">
            <mxRectangle width="30" height="30" as="alternateBounds" />
          </mxGeometry>
        </mxCell>
        <mxCell id="tX9dMiAC_j6GEqoPcF5A-13" value="location_id" style="shape=partialRectangle;connectable=0;fillColor=none;top=0;left=0;bottom=0;right=0;align=left;spacingLeft=6;overflow=hidden;" vertex="1" parent="tX9dMiAC_j6GEqoPcF5A-11">
          <mxGeometry x="30" width="170" height="30" as="geometry">
            <mxRectangle width="170" height="30" as="alternateBounds" />
          </mxGeometry>
        </mxCell>
        <mxCell id="tX9dMiAC_j6GEqoPcF5A-33" value="sebastian.job history" style="shape=table;startSize=30;container=1;collapsible=1;childLayout=tableLayout;fixedRows=1;rowLines=0;fontStyle=1;align=center;resizeLast=1;rounded=0;" vertex="1" parent="1">
          <mxGeometry x="40" y="120" width="200" height="150" as="geometry" />
        </mxCell>
        <mxCell id="tX9dMiAC_j6GEqoPcF5A-34" value="" style="shape=partialRectangle;collapsible=0;dropTarget=0;pointerEvents=0;fillColor=none;top=0;left=0;bottom=1;right=0;points=[[0,0.5],[1,0.5]];portConstraint=eastwest;rounded=0;" vertex="1" parent="tX9dMiAC_j6GEqoPcF5A-33">
          <mxGeometry y="30" width="200" height="30" as="geometry" />
        </mxCell>
        <mxCell id="tX9dMiAC_j6GEqoPcF5A-35" value="PK FK&#xa;FK" style="shape=partialRectangle;connectable=0;fillColor=none;top=0;left=0;bottom=0;right=0;fontStyle=1;overflow=hidden;rounded=0;" vertex="1" parent="tX9dMiAC_j6GEqoPcF5A-34">
          <mxGeometry width="40" height="30" as="geometry">
            <mxRectangle width="40" height="30" as="alternateBounds" />
          </mxGeometry>
        </mxCell>
        <mxCell id="tX9dMiAC_j6GEqoPcF5A-36" value="employee_id&#xa;start_date" style="shape=partialRectangle;connectable=0;fillColor=none;top=0;left=0;bottom=0;right=0;align=left;spacingLeft=6;fontStyle=5;overflow=hidden;rounded=0;" vertex="1" parent="tX9dMiAC_j6GEqoPcF5A-34">
          <mxGeometry x="40" width="160" height="30" as="geometry">
            <mxRectangle width="160" height="30" as="alternateBounds" />
          </mxGeometry>
        </mxCell>
        <mxCell id="tX9dMiAC_j6GEqoPcF5A-37" value="" style="shape=partialRectangle;collapsible=0;dropTarget=0;pointerEvents=0;fillColor=none;top=0;left=0;bottom=0;right=0;points=[[0,0.5],[1,0.5]];portConstraint=eastwest;rounded=0;" vertex="1" parent="tX9dMiAC_j6GEqoPcF5A-33">
          <mxGeometry y="60" width="200" height="30" as="geometry" />
        </mxCell>
        <mxCell id="tX9dMiAC_j6GEqoPcF5A-38" value="" style="shape=partialRectangle;connectable=0;fillColor=none;top=0;left=0;bottom=0;right=0;editable=1;overflow=hidden;rounded=0;" vertex="1" parent="tX9dMiAC_j6GEqoPcF5A-37">
          <mxGeometry width="40" height="30" as="geometry">
            <mxRectangle width="40" height="30" as="alternateBounds" />
          </mxGeometry>
        </mxCell>
        <mxCell id="tX9dMiAC_j6GEqoPcF5A-39" value="end_date" style="shape=partialRectangle;connectable=0;fillColor=none;top=0;left=0;bottom=0;right=0;align=left;spacingLeft=6;overflow=hidden;rounded=0;" vertex="1" parent="tX9dMiAC_j6GEqoPcF5A-37">
          <mxGeometry x="40" width="160" height="30" as="geometry">
            <mxRectangle width="160" height="30" as="alternateBounds" />
          </mxGeometry>
        </mxCell>
        <mxCell id="tX9dMiAC_j6GEqoPcF5A-40" value="" style="shape=partialRectangle;collapsible=0;dropTarget=0;pointerEvents=0;fillColor=none;top=0;left=0;bottom=0;right=0;points=[[0,0.5],[1,0.5]];portConstraint=eastwest;rounded=0;" vertex="1" parent="tX9dMiAC_j6GEqoPcF5A-33">
          <mxGeometry y="90" width="200" height="30" as="geometry" />
        </mxCell>
        <mxCell id="tX9dMiAC_j6GEqoPcF5A-41" value="FK" style="shape=partialRectangle;connectable=0;fillColor=none;top=0;left=0;bottom=0;right=0;editable=1;overflow=hidden;rounded=0;" vertex="1" parent="tX9dMiAC_j6GEqoPcF5A-40">
          <mxGeometry width="40" height="30" as="geometry">
            <mxRectangle width="40" height="30" as="alternateBounds" />
          </mxGeometry>
        </mxCell>
        <mxCell id="tX9dMiAC_j6GEqoPcF5A-42" value="job_id" style="shape=partialRectangle;connectable=0;fillColor=none;top=0;left=0;bottom=0;right=0;align=left;spacingLeft=6;overflow=hidden;rounded=0;" vertex="1" parent="tX9dMiAC_j6GEqoPcF5A-40">
          <mxGeometry x="40" width="160" height="30" as="geometry">
            <mxRectangle width="160" height="30" as="alternateBounds" />
          </mxGeometry>
        </mxCell>
        <mxCell id="tX9dMiAC_j6GEqoPcF5A-43" value="" style="shape=partialRectangle;collapsible=0;dropTarget=0;pointerEvents=0;fillColor=none;top=0;left=0;bottom=0;right=0;points=[[0,0.5],[1,0.5]];portConstraint=eastwest;rounded=0;" vertex="1" parent="tX9dMiAC_j6GEqoPcF5A-33">
          <mxGeometry y="120" width="200" height="30" as="geometry" />
        </mxCell>
        <mxCell id="tX9dMiAC_j6GEqoPcF5A-44" value="FK" style="shape=partialRectangle;connectable=0;fillColor=none;top=0;left=0;bottom=0;right=0;editable=1;overflow=hidden;rounded=0;" vertex="1" parent="tX9dMiAC_j6GEqoPcF5A-43">
          <mxGeometry width="40" height="30" as="geometry">
            <mxRectangle width="40" height="30" as="alternateBounds" />
          </mxGeometry>
        </mxCell>
        <mxCell id="tX9dMiAC_j6GEqoPcF5A-45" value="deprtment_id" style="shape=partialRectangle;connectable=0;fillColor=none;top=0;left=0;bottom=0;right=0;align=left;spacingLeft=6;overflow=hidden;rounded=0;" vertex="1" parent="tX9dMiAC_j6GEqoPcF5A-43">
          <mxGeometry x="40" width="160" height="30" as="geometry">
            <mxRectangle width="160" height="30" as="alternateBounds" />
          </mxGeometry>
        </mxCell>
        <mxCell id="tX9dMiAC_j6GEqoPcF5A-75" style="edgeStyle=orthogonalEdgeStyle;rounded=0;orthogonalLoop=1;jettySize=auto;html=1;exitX=0.75;exitY=0;exitDx=0;exitDy=0;verticalAlign=bottom;elbow=vertical;endArrow=ERmany;endFill=0;" edge="1" parent="1" source="tX9dMiAC_j6GEqoPcF5A-48">
          <mxGeometry relative="1" as="geometry">
            <mxPoint x="438" y="140" as="targetPoint" />
            <Array as="points">
              <mxPoint x="438" y="180" />
            </Array>
          </mxGeometry>
        </mxCell>
        <mxCell id="tX9dMiAC_j6GEqoPcF5A-48" value="sebastian.employees" style="shape=table;startSize=30;container=1;collapsible=1;childLayout=tableLayout;fixedRows=1;rowLines=0;fontStyle=1;align=center;resizeLast=1;rounded=0;" vertex="1" parent="1">
          <mxGeometry x="320" y="180" width="160" height="360" as="geometry" />
        </mxCell>
        <mxCell id="tX9dMiAC_j6GEqoPcF5A-49" value="" style="shape=partialRectangle;collapsible=0;dropTarget=0;pointerEvents=0;fillColor=none;top=0;left=0;bottom=1;right=0;points=[[0,0.5],[1,0.5]];portConstraint=eastwest;rounded=0;" vertex="1" parent="tX9dMiAC_j6GEqoPcF5A-48">
          <mxGeometry y="30" width="160" height="30" as="geometry" />
        </mxCell>
        <mxCell id="tX9dMiAC_j6GEqoPcF5A-50" value="PK" style="shape=partialRectangle;connectable=0;fillColor=none;top=0;left=0;bottom=0;right=0;fontStyle=1;overflow=hidden;rounded=0;" vertex="1" parent="tX9dMiAC_j6GEqoPcF5A-49">
          <mxGeometry width="30" height="30" as="geometry">
            <mxRectangle width="30" height="30" as="alternateBounds" />
          </mxGeometry>
        </mxCell>
        <mxCell id="tX9dMiAC_j6GEqoPcF5A-51" value="employee_id" style="shape=partialRectangle;connectable=0;fillColor=none;top=0;left=0;bottom=0;right=0;align=left;spacingLeft=6;fontStyle=5;overflow=hidden;rounded=0;" vertex="1" parent="tX9dMiAC_j6GEqoPcF5A-49">
          <mxGeometry x="30" width="130" height="30" as="geometry">
            <mxRectangle width="130" height="30" as="alternateBounds" />
          </mxGeometry>
        </mxCell>
        <mxCell id="tX9dMiAC_j6GEqoPcF5A-52" value="" style="shape=partialRectangle;collapsible=0;dropTarget=0;pointerEvents=0;fillColor=none;top=0;left=0;bottom=0;right=0;points=[[0,0.5],[1,0.5]];portConstraint=eastwest;rounded=0;" vertex="1" parent="tX9dMiAC_j6GEqoPcF5A-48">
          <mxGeometry y="60" width="160" height="20" as="geometry" />
        </mxCell>
        <mxCell id="tX9dMiAC_j6GEqoPcF5A-53" value="" style="shape=partialRectangle;connectable=0;fillColor=none;top=0;left=0;bottom=0;right=0;editable=1;overflow=hidden;rounded=0;" vertex="1" parent="tX9dMiAC_j6GEqoPcF5A-52">
          <mxGeometry width="30" height="20" as="geometry">
            <mxRectangle width="30" height="20" as="alternateBounds" />
          </mxGeometry>
        </mxCell>
        <mxCell id="tX9dMiAC_j6GEqoPcF5A-54" value=" first_name" style="shape=partialRectangle;connectable=0;fillColor=none;top=0;left=0;bottom=0;right=0;align=left;spacingLeft=6;overflow=hidden;rounded=0;" vertex="1" parent="tX9dMiAC_j6GEqoPcF5A-52">
          <mxGeometry x="30" width="130" height="20" as="geometry">
            <mxRectangle width="130" height="20" as="alternateBounds" />
          </mxGeometry>
        </mxCell>
        <mxCell id="tX9dMiAC_j6GEqoPcF5A-156" style="edgeStyle=orthogonalEdgeStyle;rounded=0;orthogonalLoop=1;jettySize=auto;html=1;exitX=1;exitY=0.5;exitDx=0;exitDy=0;entryX=1;entryY=0.5;entryDx=0;entryDy=0;endArrow=ERmany;endFill=0;verticalAlign=bottom;elbow=vertical;" edge="1" parent="tX9dMiAC_j6GEqoPcF5A-48" source="tX9dMiAC_j6GEqoPcF5A-55" target="tX9dMiAC_j6GEqoPcF5A-49">
          <mxGeometry relative="1" as="geometry" />
        </mxCell>
        <mxCell id="tX9dMiAC_j6GEqoPcF5A-55" value="" style="shape=partialRectangle;collapsible=0;dropTarget=0;pointerEvents=0;fillColor=none;top=0;left=0;bottom=0;right=0;points=[[0,0.5],[1,0.5]];portConstraint=eastwest;rounded=0;" vertex="1" parent="tX9dMiAC_j6GEqoPcF5A-48">
          <mxGeometry y="80" width="160" height="30" as="geometry" />
        </mxCell>
        <mxCell id="tX9dMiAC_j6GEqoPcF5A-56" value="" style="shape=partialRectangle;connectable=0;fillColor=none;top=0;left=0;bottom=0;right=0;editable=1;overflow=hidden;rounded=0;" vertex="1" parent="tX9dMiAC_j6GEqoPcF5A-55">
          <mxGeometry width="30" height="30" as="geometry">
            <mxRectangle width="30" height="30" as="alternateBounds" />
          </mxGeometry>
        </mxCell>
        <mxCell id="tX9dMiAC_j6GEqoPcF5A-57" value=" last_name" style="shape=partialRectangle;connectable=0;fillColor=none;top=0;left=0;bottom=0;right=0;align=left;spacingLeft=6;overflow=hidden;rounded=0;" vertex="1" parent="tX9dMiAC_j6GEqoPcF5A-55">
          <mxGeometry x="30" width="130" height="30" as="geometry">
            <mxRectangle width="130" height="30" as="alternateBounds" />
          </mxGeometry>
        </mxCell>
        <mxCell id="tX9dMiAC_j6GEqoPcF5A-58" value="" style="shape=partialRectangle;collapsible=0;dropTarget=0;pointerEvents=0;fillColor=none;top=0;left=0;bottom=0;right=0;points=[[0,0.5],[1,0.5]];portConstraint=eastwest;rounded=0;" vertex="1" parent="tX9dMiAC_j6GEqoPcF5A-48">
          <mxGeometry y="110" width="160" height="20" as="geometry" />
        </mxCell>
        <mxCell id="tX9dMiAC_j6GEqoPcF5A-59" value="" style="shape=partialRectangle;connectable=0;fillColor=none;top=0;left=0;bottom=0;right=0;editable=1;overflow=hidden;rounded=0;" vertex="1" parent="tX9dMiAC_j6GEqoPcF5A-58">
          <mxGeometry width="30" height="20" as="geometry">
            <mxRectangle width="30" height="20" as="alternateBounds" />
          </mxGeometry>
        </mxCell>
        <mxCell id="tX9dMiAC_j6GEqoPcF5A-60" value=" email" style="shape=partialRectangle;connectable=0;fillColor=none;top=0;left=0;bottom=0;right=0;align=left;spacingLeft=6;overflow=hidden;rounded=0;" vertex="1" parent="tX9dMiAC_j6GEqoPcF5A-58">
          <mxGeometry x="30" width="130" height="20" as="geometry">
            <mxRectangle width="130" height="20" as="alternateBounds" />
          </mxGeometry>
        </mxCell>
        <mxCell id="tX9dMiAC_j6GEqoPcF5A-65" value="" style="edgeStyle=orthogonalEdgeStyle;fontSize=12;html=1;endArrow=ERmany;rounded=0;verticalAlign=bottom;entryX=0.5;entryY=0;entryDx=0;entryDy=0;elbow=vertical;" edge="1" parent="1" target="tX9dMiAC_j6GEqoPcF5A-33">
          <mxGeometry width="100" height="100" relative="1" as="geometry">
            <mxPoint x="300" y="85" as="sourcePoint" />
            <mxPoint x="160" y="140" as="targetPoint" />
          </mxGeometry>
        </mxCell>
        <mxCell id="tX9dMiAC_j6GEqoPcF5A-66" value="phone_number" style="text;html=1;align=center;verticalAlign=middle;resizable=0;points=[];autosize=1;strokeColor=none;fillColor=none;" vertex="1" parent="1">
          <mxGeometry x="350" y="320" width="100" height="20" as="geometry" />
        </mxCell>
        <mxCell id="tX9dMiAC_j6GEqoPcF5A-67" value="hire_date" style="text;html=1;align=center;verticalAlign=middle;resizable=0;points=[];autosize=1;strokeColor=none;fillColor=none;" vertex="1" parent="1">
          <mxGeometry x="350" y="350" width="70" height="20" as="geometry" />
        </mxCell>
        <mxCell id="tX9dMiAC_j6GEqoPcF5A-68" value="job_id" style="text;html=1;align=center;verticalAlign=middle;resizable=0;points=[];autosize=1;strokeColor=none;fillColor=none;" vertex="1" parent="1">
          <mxGeometry x="350" y="380" width="50" height="20" as="geometry" />
        </mxCell>
        <mxCell id="tX9dMiAC_j6GEqoPcF5A-69" value="salary" style="text;html=1;align=center;verticalAlign=middle;resizable=0;points=[];autosize=1;strokeColor=none;fillColor=none;" vertex="1" parent="1">
          <mxGeometry x="350" y="410" width="50" height="20" as="geometry" />
        </mxCell>
        <mxCell id="tX9dMiAC_j6GEqoPcF5A-70" value="commission_pct" style="text;html=1;align=center;verticalAlign=middle;resizable=0;points=[];autosize=1;strokeColor=none;fillColor=none;" vertex="1" parent="1">
          <mxGeometry x="350" y="440" width="100" height="20" as="geometry" />
        </mxCell>
        <mxCell id="tX9dMiAC_j6GEqoPcF5A-71" value="manage_id" style="text;html=1;align=center;verticalAlign=middle;resizable=0;points=[];autosize=1;strokeColor=none;fillColor=none;" vertex="1" parent="1">
          <mxGeometry x="355" y="470" width="70" height="20" as="geometry" />
        </mxCell>
        <mxCell id="tX9dMiAC_j6GEqoPcF5A-72" value="department_id" style="text;html=1;align=center;verticalAlign=middle;resizable=0;points=[];autosize=1;strokeColor=none;fillColor=none;" vertex="1" parent="1">
          <mxGeometry x="350" y="500" width="90" height="20" as="geometry" />
        </mxCell>
        <mxCell id="tX9dMiAC_j6GEqoPcF5A-76" style="edgeStyle=orthogonalEdgeStyle;rounded=0;orthogonalLoop=1;jettySize=auto;html=1;exitX=0.295;exitY=1.067;exitDx=0;exitDy=0;entryX=0.25;entryY=0;entryDx=0;entryDy=0;endArrow=ERmany;endFill=0;verticalAlign=bottom;elbow=vertical;exitPerimeter=0;" edge="1" parent="1" source="tX9dMiAC_j6GEqoPcF5A-11" target="tX9dMiAC_j6GEqoPcF5A-48">
          <mxGeometry relative="1" as="geometry" />
        </mxCell>
        <mxCell id="tX9dMiAC_j6GEqoPcF5A-77" value="sebastian.locations" style="shape=table;startSize=30;container=1;collapsible=1;childLayout=tableLayout;fixedRows=1;rowLines=0;fontStyle=1;align=center;resizeLast=1;rounded=0;" vertex="1" parent="1">
          <mxGeometry x="580" width="180" height="220" as="geometry" />
        </mxCell>
        <mxCell id="tX9dMiAC_j6GEqoPcF5A-78" value="" style="shape=partialRectangle;collapsible=0;dropTarget=0;pointerEvents=0;fillColor=none;top=0;left=0;bottom=1;right=0;points=[[0,0.5],[1,0.5]];portConstraint=eastwest;rounded=0;" vertex="1" parent="tX9dMiAC_j6GEqoPcF5A-77">
          <mxGeometry y="30" width="180" height="30" as="geometry" />
        </mxCell>
        <mxCell id="tX9dMiAC_j6GEqoPcF5A-79" value="PK" style="shape=partialRectangle;connectable=0;fillColor=none;top=0;left=0;bottom=0;right=0;fontStyle=1;overflow=hidden;rounded=0;" vertex="1" parent="tX9dMiAC_j6GEqoPcF5A-78">
          <mxGeometry width="30" height="30" as="geometry">
            <mxRectangle width="30" height="30" as="alternateBounds" />
          </mxGeometry>
        </mxCell>
        <mxCell id="tX9dMiAC_j6GEqoPcF5A-80" value="location_id" style="shape=partialRectangle;connectable=0;fillColor=none;top=0;left=0;bottom=0;right=0;align=left;spacingLeft=6;fontStyle=5;overflow=hidden;rounded=0;" vertex="1" parent="tX9dMiAC_j6GEqoPcF5A-78">
          <mxGeometry x="30" width="150" height="30" as="geometry">
            <mxRectangle width="150" height="30" as="alternateBounds" />
          </mxGeometry>
        </mxCell>
        <mxCell id="tX9dMiAC_j6GEqoPcF5A-81" value="" style="shape=partialRectangle;collapsible=0;dropTarget=0;pointerEvents=0;fillColor=none;top=0;left=0;bottom=0;right=0;points=[[0,0.5],[1,0.5]];portConstraint=eastwest;rounded=0;" vertex="1" parent="tX9dMiAC_j6GEqoPcF5A-77">
          <mxGeometry y="60" width="180" height="30" as="geometry" />
        </mxCell>
        <mxCell id="tX9dMiAC_j6GEqoPcF5A-82" value="" style="shape=partialRectangle;connectable=0;fillColor=none;top=0;left=0;bottom=0;right=0;editable=1;overflow=hidden;rounded=0;" vertex="1" parent="tX9dMiAC_j6GEqoPcF5A-81">
          <mxGeometry width="30" height="30" as="geometry">
            <mxRectangle width="30" height="30" as="alternateBounds" />
          </mxGeometry>
        </mxCell>
        <mxCell id="tX9dMiAC_j6GEqoPcF5A-83" value="street_adress" style="shape=partialRectangle;connectable=0;fillColor=none;top=0;left=0;bottom=0;right=0;align=left;spacingLeft=6;overflow=hidden;rounded=0;" vertex="1" parent="tX9dMiAC_j6GEqoPcF5A-81">
          <mxGeometry x="30" width="150" height="30" as="geometry">
            <mxRectangle width="150" height="30" as="alternateBounds" />
          </mxGeometry>
        </mxCell>
        <mxCell id="tX9dMiAC_j6GEqoPcF5A-84" value="" style="shape=partialRectangle;collapsible=0;dropTarget=0;pointerEvents=0;fillColor=none;top=0;left=0;bottom=0;right=0;points=[[0,0.5],[1,0.5]];portConstraint=eastwest;rounded=0;" vertex="1" parent="tX9dMiAC_j6GEqoPcF5A-77">
          <mxGeometry y="90" width="180" height="30" as="geometry" />
        </mxCell>
        <mxCell id="tX9dMiAC_j6GEqoPcF5A-85" value="" style="shape=partialRectangle;connectable=0;fillColor=none;top=0;left=0;bottom=0;right=0;editable=1;overflow=hidden;rounded=0;" vertex="1" parent="tX9dMiAC_j6GEqoPcF5A-84">
          <mxGeometry width="30" height="30" as="geometry">
            <mxRectangle width="30" height="30" as="alternateBounds" />
          </mxGeometry>
        </mxCell>
        <mxCell id="tX9dMiAC_j6GEqoPcF5A-86" value="postal_code" style="shape=partialRectangle;connectable=0;fillColor=none;top=0;left=0;bottom=0;right=0;align=left;spacingLeft=6;overflow=hidden;rounded=0;" vertex="1" parent="tX9dMiAC_j6GEqoPcF5A-84">
          <mxGeometry x="30" width="150" height="30" as="geometry">
            <mxRectangle width="150" height="30" as="alternateBounds" />
          </mxGeometry>
        </mxCell>
        <mxCell id="tX9dMiAC_j6GEqoPcF5A-87" value="" style="shape=partialRectangle;collapsible=0;dropTarget=0;pointerEvents=0;fillColor=none;top=0;left=0;bottom=0;right=0;points=[[0,0.5],[1,0.5]];portConstraint=eastwest;rounded=0;" vertex="1" parent="tX9dMiAC_j6GEqoPcF5A-77">
          <mxGeometry y="120" width="180" height="30" as="geometry" />
        </mxCell>
        <mxCell id="tX9dMiAC_j6GEqoPcF5A-88" value="" style="shape=partialRectangle;connectable=0;fillColor=none;top=0;left=0;bottom=0;right=0;editable=1;overflow=hidden;rounded=0;" vertex="1" parent="tX9dMiAC_j6GEqoPcF5A-87">
          <mxGeometry width="30" height="30" as="geometry">
            <mxRectangle width="30" height="30" as="alternateBounds" />
          </mxGeometry>
        </mxCell>
        <mxCell id="tX9dMiAC_j6GEqoPcF5A-89" value="city" style="shape=partialRectangle;connectable=0;fillColor=none;top=0;left=0;bottom=0;right=0;align=left;spacingLeft=6;overflow=hidden;rounded=0;" vertex="1" parent="tX9dMiAC_j6GEqoPcF5A-87">
          <mxGeometry x="30" width="150" height="30" as="geometry">
            <mxRectangle width="150" height="30" as="alternateBounds" />
          </mxGeometry>
        </mxCell>
        <mxCell id="tX9dMiAC_j6GEqoPcF5A-90" value="state_province" style="text;html=1;align=center;verticalAlign=middle;resizable=0;points=[];autosize=1;strokeColor=none;fillColor=none;" vertex="1" parent="1">
          <mxGeometry x="610" y="150" width="90" height="20" as="geometry" />
        </mxCell>
        <mxCell id="tX9dMiAC_j6GEqoPcF5A-91" value="country_id" style="text;html=1;align=center;verticalAlign=middle;resizable=0;points=[];autosize=1;strokeColor=none;fillColor=none;" vertex="1" parent="1">
          <mxGeometry x="610" y="180" width="70" height="20" as="geometry" />
        </mxCell>
        <mxCell id="tX9dMiAC_j6GEqoPcF5A-92" style="edgeStyle=orthogonalEdgeStyle;rounded=0;orthogonalLoop=1;jettySize=auto;html=1;exitX=0;exitY=0.5;exitDx=0;exitDy=0;entryX=1;entryY=0.5;entryDx=0;entryDy=0;endArrow=ERmany;endFill=0;verticalAlign=bottom;elbow=vertical;" edge="1" parent="1" source="tX9dMiAC_j6GEqoPcF5A-81" target="tX9dMiAC_j6GEqoPcF5A-5">
          <mxGeometry relative="1" as="geometry" />
        </mxCell>
        <mxCell id="tX9dMiAC_j6GEqoPcF5A-106" style="edgeStyle=orthogonalEdgeStyle;rounded=0;orthogonalLoop=1;jettySize=auto;html=1;exitX=0.5;exitY=0;exitDx=0;exitDy=0;entryX=0.5;entryY=1;entryDx=0;entryDy=0;endArrow=ERmany;endFill=0;verticalAlign=bottom;elbow=vertical;" edge="1" parent="1" source="tX9dMiAC_j6GEqoPcF5A-93" target="tX9dMiAC_j6GEqoPcF5A-77">
          <mxGeometry relative="1" as="geometry" />
        </mxCell>
        <mxCell id="tX9dMiAC_j6GEqoPcF5A-93" value="sebastian.countries" style="shape=table;startSize=30;container=1;collapsible=1;childLayout=tableLayout;fixedRows=1;rowLines=0;fontStyle=1;align=center;resizeLast=1;rounded=0;swimlaneFillColor=none;" vertex="1" parent="1">
          <mxGeometry x="580" y="250" width="180" height="120" as="geometry" />
        </mxCell>
        <mxCell id="tX9dMiAC_j6GEqoPcF5A-94" value="" style="shape=partialRectangle;collapsible=0;dropTarget=0;pointerEvents=0;fillColor=none;top=0;left=0;bottom=1;right=0;points=[[0,0.5],[1,0.5]];portConstraint=eastwest;rounded=0;" vertex="1" parent="tX9dMiAC_j6GEqoPcF5A-93">
          <mxGeometry y="30" width="180" height="30" as="geometry" />
        </mxCell>
        <mxCell id="tX9dMiAC_j6GEqoPcF5A-95" value="PK" style="shape=partialRectangle;connectable=0;fillColor=none;top=0;left=0;bottom=0;right=0;fontStyle=1;overflow=hidden;rounded=0;" vertex="1" parent="tX9dMiAC_j6GEqoPcF5A-94">
          <mxGeometry width="30" height="30" as="geometry">
            <mxRectangle width="30" height="30" as="alternateBounds" />
          </mxGeometry>
        </mxCell>
        <mxCell id="tX9dMiAC_j6GEqoPcF5A-96" value="country_id" style="shape=partialRectangle;connectable=0;fillColor=none;top=0;left=0;bottom=0;right=0;align=left;spacingLeft=6;fontStyle=5;overflow=hidden;rounded=0;" vertex="1" parent="tX9dMiAC_j6GEqoPcF5A-94">
          <mxGeometry x="30" width="150" height="30" as="geometry">
            <mxRectangle width="150" height="30" as="alternateBounds" />
          </mxGeometry>
        </mxCell>
        <mxCell id="tX9dMiAC_j6GEqoPcF5A-97" value="" style="shape=partialRectangle;collapsible=0;dropTarget=0;pointerEvents=0;fillColor=none;top=0;left=0;bottom=0;right=0;points=[[0,0.5],[1,0.5]];portConstraint=eastwest;rounded=0;" vertex="1" parent="tX9dMiAC_j6GEqoPcF5A-93">
          <mxGeometry y="60" width="180" height="30" as="geometry" />
        </mxCell>
        <mxCell id="tX9dMiAC_j6GEqoPcF5A-98" value="" style="shape=partialRectangle;connectable=0;fillColor=none;top=0;left=0;bottom=0;right=0;editable=1;overflow=hidden;rounded=0;" vertex="1" parent="tX9dMiAC_j6GEqoPcF5A-97">
          <mxGeometry width="30" height="30" as="geometry">
            <mxRectangle width="30" height="30" as="alternateBounds" />
          </mxGeometry>
        </mxCell>
        <mxCell id="tX9dMiAC_j6GEqoPcF5A-99" value="country_name" style="shape=partialRectangle;connectable=0;fillColor=none;top=0;left=0;bottom=0;right=0;align=left;spacingLeft=6;overflow=hidden;rounded=0;" vertex="1" parent="tX9dMiAC_j6GEqoPcF5A-97">
          <mxGeometry x="30" width="150" height="30" as="geometry">
            <mxRectangle width="150" height="30" as="alternateBounds" />
          </mxGeometry>
        </mxCell>
        <mxCell id="tX9dMiAC_j6GEqoPcF5A-100" value="" style="shape=partialRectangle;collapsible=0;dropTarget=0;pointerEvents=0;fillColor=none;top=0;left=0;bottom=0;right=0;points=[[0,0.5],[1,0.5]];portConstraint=eastwest;rounded=0;" vertex="1" parent="tX9dMiAC_j6GEqoPcF5A-93">
          <mxGeometry y="90" width="180" height="30" as="geometry" />
        </mxCell>
        <mxCell id="tX9dMiAC_j6GEqoPcF5A-101" value="FK" style="shape=partialRectangle;connectable=0;fillColor=none;top=0;left=0;bottom=0;right=0;editable=1;overflow=hidden;rounded=0;" vertex="1" parent="tX9dMiAC_j6GEqoPcF5A-100">
          <mxGeometry width="30" height="30" as="geometry">
            <mxRectangle width="30" height="30" as="alternateBounds" />
          </mxGeometry>
        </mxCell>
        <mxCell id="tX9dMiAC_j6GEqoPcF5A-102" value="region_id" style="shape=partialRectangle;connectable=0;fillColor=none;top=0;left=0;bottom=0;right=0;align=left;spacingLeft=6;overflow=hidden;rounded=0;" vertex="1" parent="tX9dMiAC_j6GEqoPcF5A-100">
          <mxGeometry x="30" width="150" height="30" as="geometry">
            <mxRectangle width="150" height="30" as="alternateBounds" />
          </mxGeometry>
        </mxCell>
        <mxCell id="tX9dMiAC_j6GEqoPcF5A-103" value="" style="shape=partialRectangle;collapsible=0;dropTarget=0;pointerEvents=0;fillColor=none;top=0;left=0;bottom=0;right=0;points=[[0,0.5],[1,0.5]];portConstraint=eastwest;rounded=0;" vertex="1" parent="tX9dMiAC_j6GEqoPcF5A-93">
          <mxGeometry y="120" width="180" as="geometry" />
        </mxCell>
        <mxCell id="tX9dMiAC_j6GEqoPcF5A-104" value="" style="shape=partialRectangle;connectable=0;fillColor=none;top=0;left=0;bottom=0;right=0;editable=1;overflow=hidden;rounded=0;" vertex="1" parent="tX9dMiAC_j6GEqoPcF5A-103">
          <mxGeometry width="30" as="geometry">
            <mxRectangle width="30" as="alternateBounds" />
          </mxGeometry>
        </mxCell>
        <mxCell id="tX9dMiAC_j6GEqoPcF5A-105" value="" style="shape=partialRectangle;connectable=0;fillColor=none;top=0;left=0;bottom=0;right=0;align=left;spacingLeft=6;overflow=hidden;rounded=0;" vertex="1" parent="tX9dMiAC_j6GEqoPcF5A-103">
          <mxGeometry x="30" width="150" as="geometry">
            <mxRectangle width="150" as="alternateBounds" />
          </mxGeometry>
        </mxCell>
        <mxCell id="tX9dMiAC_j6GEqoPcF5A-162" style="edgeStyle=orthogonalEdgeStyle;rounded=0;orthogonalLoop=1;jettySize=auto;html=1;exitX=0.5;exitY=0;exitDx=0;exitDy=0;endArrow=ERmany;endFill=0;verticalAlign=bottom;elbow=vertical;" edge="1" parent="1" source="tX9dMiAC_j6GEqoPcF5A-107">
          <mxGeometry relative="1" as="geometry">
            <mxPoint x="669" y="370" as="targetPoint" />
          </mxGeometry>
        </mxCell>
        <mxCell id="tX9dMiAC_j6GEqoPcF5A-107" value="sebastian.regions" style="shape=table;startSize=30;container=1;collapsible=1;childLayout=tableLayout;fixedRows=1;rowLines=0;fontStyle=1;align=center;resizeLast=1;rounded=0;gradientColor=none;" vertex="1" parent="1">
          <mxGeometry x="580" y="405" width="180" height="90" as="geometry" />
        </mxCell>
        <mxCell id="tX9dMiAC_j6GEqoPcF5A-108" value="" style="shape=partialRectangle;collapsible=0;dropTarget=0;pointerEvents=0;fillColor=none;top=0;left=0;bottom=1;right=0;points=[[0,0.5],[1,0.5]];portConstraint=eastwest;rounded=0;" vertex="1" parent="tX9dMiAC_j6GEqoPcF5A-107">
          <mxGeometry y="30" width="180" height="30" as="geometry" />
        </mxCell>
        <mxCell id="tX9dMiAC_j6GEqoPcF5A-109" value="PK" style="shape=partialRectangle;connectable=0;fillColor=none;top=0;left=0;bottom=0;right=0;fontStyle=1;overflow=hidden;rounded=0;" vertex="1" parent="tX9dMiAC_j6GEqoPcF5A-108">
          <mxGeometry width="30" height="30" as="geometry">
            <mxRectangle width="30" height="30" as="alternateBounds" />
          </mxGeometry>
        </mxCell>
        <mxCell id="tX9dMiAC_j6GEqoPcF5A-110" value="region_id" style="shape=partialRectangle;connectable=0;fillColor=none;top=0;left=0;bottom=0;right=0;align=left;spacingLeft=6;fontStyle=5;overflow=hidden;rounded=0;" vertex="1" parent="tX9dMiAC_j6GEqoPcF5A-108">
          <mxGeometry x="30" width="150" height="30" as="geometry">
            <mxRectangle width="150" height="30" as="alternateBounds" />
          </mxGeometry>
        </mxCell>
        <mxCell id="tX9dMiAC_j6GEqoPcF5A-111" value="" style="shape=partialRectangle;collapsible=0;dropTarget=0;pointerEvents=0;fillColor=none;top=0;left=0;bottom=0;right=0;points=[[0,0.5],[1,0.5]];portConstraint=eastwest;rounded=0;" vertex="1" parent="tX9dMiAC_j6GEqoPcF5A-107">
          <mxGeometry y="60" width="180" height="30" as="geometry" />
        </mxCell>
        <mxCell id="tX9dMiAC_j6GEqoPcF5A-112" value="" style="shape=partialRectangle;connectable=0;fillColor=none;top=0;left=0;bottom=0;right=0;editable=1;overflow=hidden;rounded=0;" vertex="1" parent="tX9dMiAC_j6GEqoPcF5A-111">
          <mxGeometry width="30" height="30" as="geometry">
            <mxRectangle width="30" height="30" as="alternateBounds" />
          </mxGeometry>
        </mxCell>
        <mxCell id="tX9dMiAC_j6GEqoPcF5A-113" value="region_name" style="shape=partialRectangle;connectable=0;fillColor=none;top=0;left=0;bottom=0;right=0;align=left;spacingLeft=6;overflow=hidden;rounded=0;" vertex="1" parent="tX9dMiAC_j6GEqoPcF5A-111">
          <mxGeometry x="30" width="150" height="30" as="geometry">
            <mxRectangle width="150" height="30" as="alternateBounds" />
          </mxGeometry>
        </mxCell>
        <mxCell id="tX9dMiAC_j6GEqoPcF5A-114" value="" style="shape=partialRectangle;collapsible=0;dropTarget=0;pointerEvents=0;fillColor=none;top=0;left=0;bottom=0;right=0;points=[[0,0.5],[1,0.5]];portConstraint=eastwest;rounded=0;" vertex="1" parent="tX9dMiAC_j6GEqoPcF5A-107">
          <mxGeometry y="90" width="180" as="geometry" />
        </mxCell>
        <mxCell id="tX9dMiAC_j6GEqoPcF5A-115" value="" style="shape=partialRectangle;connectable=0;fillColor=none;top=0;left=0;bottom=0;right=0;editable=1;overflow=hidden;rounded=0;" vertex="1" parent="tX9dMiAC_j6GEqoPcF5A-114">
          <mxGeometry width="30" as="geometry">
            <mxRectangle width="30" as="alternateBounds" />
          </mxGeometry>
        </mxCell>
        <mxCell id="tX9dMiAC_j6GEqoPcF5A-116" value="" style="shape=partialRectangle;connectable=0;fillColor=none;top=0;left=0;bottom=0;right=0;align=left;spacingLeft=6;overflow=hidden;rounded=0;" vertex="1" parent="tX9dMiAC_j6GEqoPcF5A-114">
          <mxGeometry x="30" width="150" as="geometry">
            <mxRectangle width="150" as="alternateBounds" />
          </mxGeometry>
        </mxCell>
        <mxCell id="tX9dMiAC_j6GEqoPcF5A-117" value="" style="shape=partialRectangle;collapsible=0;dropTarget=0;pointerEvents=0;fillColor=none;top=0;left=0;bottom=0;right=0;points=[[0,0.5],[1,0.5]];portConstraint=eastwest;rounded=0;" vertex="1" parent="tX9dMiAC_j6GEqoPcF5A-107">
          <mxGeometry y="90" width="180" as="geometry" />
        </mxCell>
        <mxCell id="tX9dMiAC_j6GEqoPcF5A-118" value="" style="shape=partialRectangle;connectable=0;fillColor=none;top=0;left=0;bottom=0;right=0;editable=1;overflow=hidden;rounded=0;" vertex="1" parent="tX9dMiAC_j6GEqoPcF5A-117">
          <mxGeometry width="30" as="geometry">
            <mxRectangle width="30" as="alternateBounds" />
          </mxGeometry>
        </mxCell>
        <mxCell id="tX9dMiAC_j6GEqoPcF5A-119" value="" style="shape=partialRectangle;connectable=0;fillColor=none;top=0;left=0;bottom=0;right=0;align=left;spacingLeft=6;overflow=hidden;rounded=0;" vertex="1" parent="tX9dMiAC_j6GEqoPcF5A-117">
          <mxGeometry x="30" width="150" as="geometry">
            <mxRectangle width="150" as="alternateBounds" />
          </mxGeometry>
        </mxCell>
        <mxCell id="tX9dMiAC_j6GEqoPcF5A-163" style="edgeStyle=orthogonalEdgeStyle;rounded=0;orthogonalLoop=1;jettySize=auto;html=1;exitX=0.5;exitY=0;exitDx=0;exitDy=0;entryX=0.55;entryY=1;entryDx=0;entryDy=0;entryPerimeter=0;endArrow=ERmany;endFill=0;verticalAlign=bottom;elbow=vertical;" edge="1" parent="1" source="tX9dMiAC_j6GEqoPcF5A-141" target="tX9dMiAC_j6GEqoPcF5A-43">
          <mxGeometry relative="1" as="geometry" />
        </mxCell>
        <mxCell id="tX9dMiAC_j6GEqoPcF5A-141" value="sebastian.jobs" style="shape=table;startSize=30;container=1;collapsible=1;childLayout=tableLayout;fixedRows=1;rowLines=0;fontStyle=1;align=center;resizeLast=1;rounded=0;gradientColor=none;" vertex="1" parent="1">
          <mxGeometry x="60" y="320" width="180" height="160" as="geometry" />
        </mxCell>
        <mxCell id="tX9dMiAC_j6GEqoPcF5A-142" value="" style="shape=partialRectangle;collapsible=0;dropTarget=0;pointerEvents=0;fillColor=none;top=0;left=0;bottom=1;right=0;points=[[0,0.5],[1,0.5]];portConstraint=eastwest;rounded=0;" vertex="1" parent="tX9dMiAC_j6GEqoPcF5A-141">
          <mxGeometry y="30" width="180" height="30" as="geometry" />
        </mxCell>
        <mxCell id="tX9dMiAC_j6GEqoPcF5A-143" value="PK" style="shape=partialRectangle;connectable=0;fillColor=none;top=0;left=0;bottom=0;right=0;fontStyle=1;overflow=hidden;rounded=0;" vertex="1" parent="tX9dMiAC_j6GEqoPcF5A-142">
          <mxGeometry width="30" height="30" as="geometry">
            <mxRectangle width="30" height="30" as="alternateBounds" />
          </mxGeometry>
        </mxCell>
        <mxCell id="tX9dMiAC_j6GEqoPcF5A-144" value="job_id" style="shape=partialRectangle;connectable=0;fillColor=none;top=0;left=0;bottom=0;right=0;align=left;spacingLeft=6;fontStyle=5;overflow=hidden;rounded=0;" vertex="1" parent="tX9dMiAC_j6GEqoPcF5A-142">
          <mxGeometry x="30" width="150" height="30" as="geometry">
            <mxRectangle width="150" height="30" as="alternateBounds" />
          </mxGeometry>
        </mxCell>
        <mxCell id="tX9dMiAC_j6GEqoPcF5A-145" value="" style="shape=partialRectangle;collapsible=0;dropTarget=0;pointerEvents=0;fillColor=none;top=0;left=0;bottom=0;right=0;points=[[0,0.5],[1,0.5]];portConstraint=eastwest;rounded=0;" vertex="1" parent="tX9dMiAC_j6GEqoPcF5A-141">
          <mxGeometry y="60" width="180" height="30" as="geometry" />
        </mxCell>
        <mxCell id="tX9dMiAC_j6GEqoPcF5A-146" value="" style="shape=partialRectangle;connectable=0;fillColor=none;top=0;left=0;bottom=0;right=0;editable=1;overflow=hidden;rounded=0;" vertex="1" parent="tX9dMiAC_j6GEqoPcF5A-145">
          <mxGeometry width="30" height="30" as="geometry">
            <mxRectangle width="30" height="30" as="alternateBounds" />
          </mxGeometry>
        </mxCell>
        <mxCell id="tX9dMiAC_j6GEqoPcF5A-147" value="job_title" style="shape=partialRectangle;connectable=0;fillColor=none;top=0;left=0;bottom=0;right=0;align=left;spacingLeft=6;overflow=hidden;rounded=0;" vertex="1" parent="tX9dMiAC_j6GEqoPcF5A-145">
          <mxGeometry x="30" width="150" height="30" as="geometry">
            <mxRectangle width="150" height="30" as="alternateBounds" />
          </mxGeometry>
        </mxCell>
        <mxCell id="tX9dMiAC_j6GEqoPcF5A-148" value="" style="shape=partialRectangle;collapsible=0;dropTarget=0;pointerEvents=0;fillColor=none;top=0;left=0;bottom=0;right=0;points=[[0,0.5],[1,0.5]];portConstraint=eastwest;rounded=0;" vertex="1" parent="tX9dMiAC_j6GEqoPcF5A-141">
          <mxGeometry y="90" width="180" height="30" as="geometry" />
        </mxCell>
        <mxCell id="tX9dMiAC_j6GEqoPcF5A-149" value="" style="shape=partialRectangle;connectable=0;fillColor=none;top=0;left=0;bottom=0;right=0;editable=1;overflow=hidden;rounded=0;" vertex="1" parent="tX9dMiAC_j6GEqoPcF5A-148">
          <mxGeometry width="30" height="30" as="geometry">
            <mxRectangle width="30" height="30" as="alternateBounds" />
          </mxGeometry>
        </mxCell>
        <mxCell id="tX9dMiAC_j6GEqoPcF5A-150" value="min_salary" style="shape=partialRectangle;connectable=0;fillColor=none;top=0;left=0;bottom=0;right=0;align=left;spacingLeft=6;overflow=hidden;rounded=0;" vertex="1" parent="tX9dMiAC_j6GEqoPcF5A-148">
          <mxGeometry x="30" width="150" height="30" as="geometry">
            <mxRectangle width="150" height="30" as="alternateBounds" />
          </mxGeometry>
        </mxCell>
        <mxCell id="tX9dMiAC_j6GEqoPcF5A-151" value="" style="shape=partialRectangle;collapsible=0;dropTarget=0;pointerEvents=0;fillColor=none;top=0;left=0;bottom=0;right=0;points=[[0,0.5],[1,0.5]];portConstraint=eastwest;rounded=0;" vertex="1" parent="tX9dMiAC_j6GEqoPcF5A-141">
          <mxGeometry y="120" width="180" height="30" as="geometry" />
        </mxCell>
        <mxCell id="tX9dMiAC_j6GEqoPcF5A-152" value="" style="shape=partialRectangle;connectable=0;fillColor=none;top=0;left=0;bottom=0;right=0;editable=1;overflow=hidden;rounded=0;" vertex="1" parent="tX9dMiAC_j6GEqoPcF5A-151">
          <mxGeometry width="30" height="30" as="geometry">
            <mxRectangle width="30" height="30" as="alternateBounds" />
          </mxGeometry>
        </mxCell>
        <mxCell id="tX9dMiAC_j6GEqoPcF5A-153" value="max_salary" style="shape=partialRectangle;connectable=0;fillColor=none;top=0;left=0;bottom=0;right=0;align=left;spacingLeft=6;overflow=hidden;rounded=0;" vertex="1" parent="tX9dMiAC_j6GEqoPcF5A-151">
          <mxGeometry x="30" width="150" height="30" as="geometry">
            <mxRectangle width="150" height="30" as="alternateBounds" />
          </mxGeometry>
        </mxCell>
        <mxCell id="tX9dMiAC_j6GEqoPcF5A-154" style="edgeStyle=orthogonalEdgeStyle;rounded=0;orthogonalLoop=1;jettySize=auto;html=1;exitX=0;exitY=0.5;exitDx=0;exitDy=0;entryX=1;entryY=0.5;entryDx=0;entryDy=0;endArrow=ERmany;endFill=0;verticalAlign=bottom;elbow=vertical;" edge="1" parent="1" source="tX9dMiAC_j6GEqoPcF5A-55" target="tX9dMiAC_j6GEqoPcF5A-34">
          <mxGeometry relative="1" as="geometry" />
        </mxCell>
        <mxCell id="tX9dMiAC_j6GEqoPcF5A-155" style="edgeStyle=orthogonalEdgeStyle;rounded=0;orthogonalLoop=1;jettySize=auto;html=1;exitX=1;exitY=0.5;exitDx=0;exitDy=0;entryX=0;entryY=0.5;entryDx=0;entryDy=0;endArrow=ERmany;endFill=0;verticalAlign=bottom;elbow=vertical;" edge="1" parent="1" source="tX9dMiAC_j6GEqoPcF5A-145" target="tX9dMiAC_j6GEqoPcF5A-48">
          <mxGeometry relative="1" as="geometry" />
        </mxCell>
        <mxCell id="tX9dMiAC_j6GEqoPcF5A-158" value="FK" style="text;html=1;align=center;verticalAlign=middle;resizable=0;points=[];autosize=1;strokeColor=none;fillColor=none;" vertex="1" parent="1">
          <mxGeometry x="315" y="470" width="30" height="20" as="geometry" />
        </mxCell>
        <mxCell id="tX9dMiAC_j6GEqoPcF5A-159" value="FK" style="text;html=1;align=center;verticalAlign=middle;resizable=0;points=[];autosize=1;strokeColor=none;fillColor=none;" vertex="1" parent="1">
          <mxGeometry x="315" y="500" width="30" height="20" as="geometry" />
        </mxCell>
        <mxCell id="tX9dMiAC_j6GEqoPcF5A-160" value="FK" style="text;html=1;align=center;verticalAlign=middle;resizable=0;points=[];autosize=1;strokeColor=none;fillColor=none;" vertex="1" parent="1">
          <mxGeometry x="320" y="380" width="30" height="20" as="geometry" />
        </mxCell>
        <mxCell id="tX9dMiAC_j6GEqoPcF5A-161" value="FK" style="text;html=1;align=center;verticalAlign=middle;resizable=0;points=[];autosize=1;strokeColor=none;fillColor=none;" vertex="1" parent="1">
          <mxGeometry x="580" y="180" width="30" height="20" as="geometry" />
        </mxCell>
      </root>
    </mxGraphModel>
  </diagram>
</mxfile>
